<svg width="1318" height="800" viewBox="0 0 1318 800" fill="none" xmlns="http://www.w3.org/2000/svg">
<path opacity="0.210542" fill-rule="evenodd" clip-rule="evenodd" d="M1277.48 66.1214C1278.65 64.9498 1280.55 64.9498 1281.72 66.1214L1317.07 101.477C1318.25 102.648 1318.25 104.548 1317.07 105.719L1281.72 141.075C1280.55 142.246 1278.65 142.246 1277.48 141.075L1242.12 105.719C1240.95 104.548 1240.95 102.648 1242.12 101.477L1277.48 66.1214ZM834.817 4.89196e-05L425.593 4.89196e-05L6.95543 369.855L2.36253e-06 367L4.5038e-05 376L-5.47657e-05 494.701L1.53666e-05 532.831L27.7516 515.118L416.146 800.862L1057.3 801L158.124 431.907L834.817 4.89196e-05ZM1109.99 684.121C1108.82 682.95 1106.92 682.95 1105.75 684.121L1083.12 706.749C1081.95 707.92 1081.95 709.82 1083.12 710.991L1105.75 733.619C1106.92 734.79 1108.82 734.79 1109.99 733.619L1132.62 710.991C1133.79 709.82 1133.79 707.92 1132.62 706.749L1109.99 684.121ZM936.749 43.1214C935.577 41.9498 933.678 41.9498 932.506 43.1214L914.121 61.5061C912.95 62.6777 912.95 64.5772 914.121 65.7488L932.506 84.1335C933.678 85.3051 935.577 85.3051 936.749 84.1335L955.133 65.7488C956.305 64.5772 956.305 62.6777 955.133 61.5061L936.749 43.1214ZM701.506 166.121C702.678 164.95 704.577 164.95 705.749 166.121L724.133 184.506C725.305 185.678 725.305 187.577 724.133 188.749L705.749 207.134C704.577 208.305 702.678 208.305 701.506 207.134L683.121 188.749C681.95 187.577 681.95 185.678 683.121 184.506L701.506 166.121ZM1237.73 594.707C1237.34 594.317 1236.7 594.317 1236.31 594.707L1225.71 605.314C1225.32 605.704 1225.32 606.337 1225.71 606.728L1236.31 617.335C1236.7 617.725 1237.34 617.725 1237.73 617.335L1248.33 606.728C1248.73 606.337 1248.73 605.704 1248.33 605.314L1237.73 594.707ZM77.7383 725.738C79.691 723.786 82.8568 723.786 84.8094 725.738L96.4766 737.406L108.144 725.738C110.097 723.786 113.262 723.786 115.215 725.738C117.168 727.691 117.168 730.857 115.215 732.809L103.548 744.477L115.215 756.144C117.168 758.097 117.168 761.262 115.215 763.215C113.262 765.168 110.097 765.168 108.144 763.215L96.4766 751.548L84.8094 763.215C82.8567 765.168 79.6909 765.168 77.7383 763.215C75.7857 761.262 75.7856 758.097 77.7383 756.144L89.4056 744.477L77.7383 732.809C75.7857 730.857 75.7856 727.691 77.7383 725.738Z" fill="url(#paint0_linear_0_285)"/>
<defs>
<linearGradient id="paint0_linear_0_285" x1="126.768" y1="-566.148" x2="31.8916" y2="1241.55" gradientUnits="userSpaceOnUse">
<stop stop-color="#FF52C1"/>
<stop offset="1" stop-color="#9952FF"/>
</linearGradient>
</defs>
</svg>
